<svg id="Layer_1" data-name="Layer 1" xmlns="http://www.w3.org/2000/svg" viewBox="0 0 569.1 103.2"><defs><style>.cls-1{fill:#fff;}</style></defs><title>logo</title><g id="_Group_" data-name=" Group "><path class="cls-1" d="M526,31.1a4.6,4.6,0,0,1-.7.7c-1.9-.1-3.4-1-3.4-2.8.6.4.6.9,1,1.3S525.1,30.6,526,31.1Z" transform="translate(0 0)"/><path class="cls-1" d="M512.4,28.4c0-.1,1.1-.7.5-.6a4,4,0,0,0,.3-1.5c-1.2-.5-2,.6-2.9.3s-.8-.9-1.7-1a1.1,1.1,0,0,1-1.2.7l-.5-.3c-.2-.6-1.2-1.7-1.5-1.6s.1.5,0,1a2.4,2.4,0,0,1-1.1.6c-1.1-.8-1.2-2.9-2.7-2.9-3.4.2-3,5.4-6.6,4.7-1.3-1-.2-3.3.2-4.7a4.7,4.7,0,0,0,2.2-.9c.4-.9-.7-1.2-.3-2.6-1.9.2-3.7-.9-2.3-2.7a2.4,2.4,0,0,0,1-.5c-.4-1,0-1.7.2-2.6,1.5.8,2.1,2.4,3.1,3.6a7.6,7.6,0,0,1,.9-.9l1.3-.7c.8-.2,1.4.4,2.1.5s2.7-1.3,3.2-3.3h-1.2c-.7-.4-.5-1.8-.4-2.5-1.5.3-1.3,3.2-2.2,4.5a.9.9,0,0,1-.6.4,1.4,1.4,0,0,1-1-.4c-.9-.1-2.8.1-2.6-1.6,1.8-1.6,2.3-4.4,4.2-5.8s1.4-.5,2-1c-3.6-.4-7.5-1.3-11.5-.9A6.6,6.6,0,0,0,492,8.5c-1,1.1-2.7,1.3-4.2,1.6a8.8,8.8,0,0,0-1.9,2.4,6.9,6.9,0,0,1-.5,1.3,5.9,5.9,0,0,1-3,1.6,4.1,4.1,0,0,1-1.9-1.8,7.2,7.2,0,0,1-.9-2c-.3-1.1.5-2.3.4-3.6a4.8,4.8,0,0,0-2.3-1.3c-1.5-.3-2.9,1.3-4.2,1.6s-.6-.4-1-.1c1.4,1.2,3.7,1.5,4.8,3a6.8,6.8,0,0,1-2.6,3.2c-1.3.6-3.4-1-3.8-1.8a1,1,0,0,0,.5-1.3l-.3-.4a3.3,3.3,0,0,0-1.6.5c-.3.6-.3,1.3-.6,1.7h-.3c-.1.1-.1.6-.2.8a2.7,2.7,0,0,1-1.2.9c-1.1.3-3.8-.5-3.4,1.1a1.3,1.3,0,0,0,1.2.2c1.2.5,1,2.5,2.6,2.2-.5-2.3,2.1-4.3,4.3-4.5s1.8,1.9,3.2,1.4,1.1,1.3,1.7,2,1.7,1.3,1.4,2.5a4.9,4.9,0,0,1-2.6,1.9c-.8.1-1.4-.7-2.2-.2a1.6,1.6,0,0,1,1,1.1,22.7,22.7,0,0,1-1.8,2.5c-.7.1-1.1.6-1.8.7s-1,1.8-1.9,2.6-.9.4-1.2.7a5.5,5.5,0,0,0-2.6,4c-.1,1.4,1.4,3-.2,4.1l-1.3-.7-1.5-.6c-.6-.2-1-.9-1.7-.9s-3.9,2.6-3.2,4.3c.7,0,1.1-.7,1.8-.7s1.2,1.4,1.7,2.3,1,.6,1.3,1.1a5.3,5.3,0,0,0,.6,1,3.5,3.5,0,0,0,.6.9c1.1,1,1.5.3,2.5-.4a8,8,0,0,1,2.1-1.5,7,7,0,0,1,2.8,2.3c1.3.4,2.8-.4,3.7.2s.3,1,.6,1.5l.8.9c1,.1,2.1.8,3.3.6a.7.7,0,0,0,.4.6c.3,2.9,4.1,3.2,6.5,4.4l.5,1a12.9,12.9,0,0,1-1.6,4.1l-.9,1.1c-.5,1.2.4,2.7.1,3.9s-2,1.5-2.9,2.5a6.1,6.1,0,0,0-1.4,6.2,7.8,7.8,0,0,0-2.4,2.7c5,1.8,11,2.1,16.9,2.6a54.7,54.7,0,0,0,7,.3,9,9,0,0,0,5-1.6,52.6,52.6,0,0,0,8.5-6.4c0-.2.1-.3.2-.5,3.5-2.9,5.9-7,8.5-10.9s4.7-14,3.7-21.2c-.3,0-.6.7-1,1s-2.8.9-4,1.7-.6.7-.9.8-2,.2-2.2-.8-.7-1.1-1-1.8a15,15,0,0,0-2.3-3.3,3.2,3.2,0,0,0-1.4-1.4c1.2,2.6,2.2,6.7,4.6,7.8s4.9-1.9,6.2-.2c-.4,4.5-3.3,8.2-5.5,11.7.3,2.3,1.9,3.3,1.9,6a34.7,34.7,0,0,1-2.9,2.5,3.6,3.6,0,0,1-.7,3.7l-1.7,1.2a6.1,6.1,0,0,0-.7,1.7l-.6.6a6.3,6.3,0,0,1-.4.9,7.2,7.2,0,0,1-3.1,2.3l-1.3.4c-.5.2-.9,1.2-1.7,1.2a1.4,1.4,0,0,1-1.1-.6c-.9-1.4-.3-3.6-.4-5.4a25.4,25.4,0,0,0-.9-4.8l-.6-2.4c-.1-.2,0-.6-.1-1s-.5-1.1-.7-1.7a5.9,5.9,0,0,1-.5-4.3c-.3-.7-1.2-.9-1.3-1.7s1.2-2.3.5-3.6l-2.3-.2c-.5.1-.5.7-.7,1a9.4,9.4,0,0,1-1.8,1.2c-.8.1-1.4-.5-2.2-.8s-2.6-1.9-3.7-3.3,0-.4-.1-.4a11.2,11.2,0,0,0-1.7-2,4.8,4.8,0,0,1-1-3.5c0-.7.8-1.2,1.2-1.8s.2-1.2.5-1.7l.7-.9c.2-.3.3-.8.5-1.2a27.4,27.4,0,0,1,4.5-5.1c.1.1.3-.1.3-.1a7.6,7.6,0,0,1,2-.6,22,22,0,0,1,3.6-.4c1.4,0,2.6,1.3,3.9,1.3s.6-.2,1-.1,1.1.4,1.9.4A7.1,7.1,0,0,0,512.4,28.4Zm44.9,12a19.9,19.9,0,0,0-1.9-2.4,113,113,0,0,0-7.8-9.3A85.5,85.5,0,0,0,533,17.3c-3.5-2.2-7.2-4.5-11.3-5.7a79.1,79.1,0,0,1,7.4,15.2,37.5,37.5,0,0,1,2.4,14.5,28.9,28.9,0,0,1-.4,5c-.4,1.7-.6,3.6-1.2,5.4s-1,2.5-1.4,3.7a45.6,45.6,0,0,1-4.2,8.6,2.4,2.4,0,0,0-.9,1.6c-.8.3-1.1,1.3-1.5,2-2.3,2.6-4.4,5.3-6.7,7.8,4.5-.6,8.9-.9,12.9-2a91.6,91.6,0,0,0,10.4-3.7,106.6,106.6,0,0,0,9.6-4.7c2.6-1.3,4.4-2.2,5.6-4.6a77.6,77.6,0,0,0,3.7-7.7c1-2.9,2-6.3,1.2-9.7a12.1,12.1,0,0,1-.5-1.4,4.4,4.4,0,0,1-.8-1.1Zm11.7.2c.4,1.7-.7,3.8-1.5,5.6s-2.5,6-4,8.9-1.7,2.8-2.3,4.1-.6,1.8-1,2.7-.8,2.7-2,3.4c-4,1.5-6.9,3.1-10.8,4.6a62,62,0,0,1-8.4,3.5l-6.6,2a100.3,100.3,0,0,1-20.3,4.2l-3.5.4c-2.4.2-5.1.2-7.5.5s-6.2-.2-9.7-.3a39.9,39.9,0,0,1-6.9-.3l-1-.3-3.4-.4a64.5,64.5,0,0,1-10.8-2.1c-1.4-.4-4.4-1.5-3.8-3.6s2-1.6,2.6-2.6a8.1,8.1,0,0,0,.9-4.8c-.2-1.1-1.2-1.5-1.8-2.6-3.9-1.2-5-5.4-7-8.2a14,14,0,0,0,2.5-6.2c-.7-.8-1.9-.7-2.7-1.3a9,9,0,0,1-1.4-2l-2-.2-1.3.2a7.6,7.6,0,0,1-1.9-1.2v-.4l-.7-.4-2.3-2.4c-.2-.3-.3-.7-.5-1a5,5,0,0,0-.8-.7c-.3-.5-.3-1.2-.7-1.4a64.2,64.2,0,0,1,7.8-18,73.9,73.9,0,0,1,5.3-8c1.1-1.4,2.2-2.7,3.4-4a.1.1,0,0,0,.1-.1c-2.3.6-4.7,1-7.5,1.6a22.6,22.6,0,0,0-3.7,1.1c-3.9.3-6.8,2.5-9.8,3.6a20.7,20.7,0,0,0-5.4,2.6,16.2,16.2,0,0,0-3.3,1.3c-.5.2-1,.6-1.6.8s-4,2-6,3.3-4.8,3.1-7.4,4.3a20.4,20.4,0,0,1-3.9,2.6c-1.7.3-3.2-.5-2.1-2.2a10.3,10.3,0,0,1,3-2.5l3.3-2.3c2.4-1.4,5-2.4,7.2-3.7a80.2,80.2,0,0,1,10.2-5l4.7-2.2c7.9-3.4,17-6.8,25.6-8.6a.4.4,0,0,0,.4-.4c1.5.3,3-.3,4.5-.7,3-.6,6.3-.7,9.5-1.1a27.6,27.6,0,0,1,5.7-.6c1.5,0,4.6-.3,5.9.2s4.8.2,7.2.5a90.2,90.2,0,0,1,22.7,5.8A23.6,23.6,0,0,0,527,7.8a28.6,28.6,0,0,1,4.1,1.5l1.2.9c1.8,1,3.7,1.7,5.4,2.7s3.4,2,5,3.2c3.3,2.2,6.7,4,9.7,6.5s5.8,5,8.5,7.7,4.6,6,7.3,8.8a11.9,11.9,0,0,0,.8,1.6ZM526,31l-4-2M510.4,10.6c.5-.8,1.3-.9,2-1.5-.9-.5-2-.8-2.8-1.2S509.6,10.1,510.4,10.6Z" transform="translate(0 0)"/><path class="cls-1" d="M509.5,7.8c.9.5,2,.8,2.9,1.2" transform="translate(0 0)"/><path class="cls-1" d="M490.8,9.8c.9-.3,2.7.5,1.5,2a11.9,11.9,0,0,1-2.3,1.6,1.4,1.4,0,0,1-1.8-1h-.1c0-.5.7-.6,1.1-1S489.8,10,490.8,9.8Z" transform="translate(0 0)"/><path class="cls-1" d="M480.2,22.3c.1.8-.8,1.3-1.6,1.7s-1.5-2.5-.3-3S480.1,21.4,480.2,22.3Z" transform="translate(0 0)"/></g><g id="_Group_2" data-name=" Group 2"><path class="cls-1" d="M469.8,68.5c-.2,5.4,8.4-1-6.8,4.2-5.5,3.7-14.8,5.3-22.1,5.5a16.6,16.6,0,0,1-6.3-9c-1.4.3-.6,2.9-1.5,3.7-9.5,3.2-23.9,9.3-27.5-2.5-2,4.1-8,4-12.7,5.3-1,3-1.7,6.5-4.4,7.8h-6c-2.2-1.6-3.5-6.4-5.4-6.7s-8.1,1.6-11.2-.3c4-4.4,11.2-5.4,16.5-8.4-3-3.8-8.2-5.3-11.4-8.7-5.3,3-10.6,8.6-15.2,10.8-2.3-10.7,12.3-10.7,8-22.2,3.6-7,17.7-2.8,16.2,6,5.8,3.1,10.8,7,14.1,12.5,3.5.1,7,.3,9.4-.7a8.2,8.2,0,0,1,4.8-5c1.7-8.7,10.3-18.5,16.5-9.4,1.4,10.6-5.1,12.4-7.9,18,8.2,1.7,10.1-3.1,16.4-3.3-.1-3.2,2.8-3.2,3.9-5,2.7-4,4.4-12.4,10.6-12.8,2-.2,5.6,1.3,6.4,4.3,2.3,8.8-5.5,11.5-7.9,17.6C454.4,72,463.6,67,469.8,68.5Zm-26.7-5.1c3.9.8,4.1-4.9,2.5-6.9C443.5,57.3,441,61,443.1,63.4Zm-27-1.1c1.3-1.3,2-6.4-.7-6.6-.9,1.9-3.8,3.9-2,7,1.3.3,1.6-.5,2.7-.4Z" transform="translate(0 0)"/><path class="cls-1" d="M422.2,22.3c-8.8,1.4-18.1-.4-26.1-.6s-18.5,2.2-26.7,4-16.6,5-24,7.3C334.7,46.8,321,57.4,313.6,74.7c8-2.3,13.3-9.9,21.3-10.7,3.5,5.5-2.8,9.1-7.8,12.4s-9.9,7.7-14.2,8.1c-12.3,1-9-10.7-5.6-17.4-1.4,2.1-6,1.6-9,3s-4.1,3.8-6.6,4.5-8.6-3-13-5.9c-.9,5.9-6.1,7.3-11,9.1-1.2-1.3-3.5-1.6-4.1-3.4-.4-4.7,1.6-7,2.2-10.7-5.5,5.5-17.1,12.9-26.3,6.4-1.7-1.2-1.9-3.3-3.6-5.2-4.2,1.4-8.2,5.2-13.2,9s-17.4,15.9-19.2,1.9c-4.8.1-15.1,5.3-19.3,5.6-12.2.8-9.3-10.3-5.6-16.9-1.6-1.1-6.5,4.8-11.3,2-2.4-7.4,3.2-8.5,7.3-11.5,7-5,12.2-10.9,17.6-15.9.8-.6,3.5-1.1,2.4-2.7-7.5-1.6-28.2-5.8-15-13,11.4,1.6,30.2,1.2,38.8-4.7,3.6-2.4,4.3-8.6,10-8.2,3.7.4,4.5,4.2,5.9,6.7,5-.2,9.1-1.3,14-1.5,1.7-2.7,3.6-5.2,4.9-8.3h1.4c1.8,1.1,5.3.7,6,3s-2.2,3.6-.1,3.7c9.6.4,26.2-2.3,33,5-12.5,1.7-25.4-2.2-37.4,1C245.8,37.2,231,52,220.5,67.3c6.7-4.2,11-10.8,21.8-10.6,2.8,1.5,2.8,5.8,5.4,7.6,11.3-.3,15.1-7.2,22.2-12.1s11.8-8.7,18.3-5.6c.5,6.7-.1,14.4,2.4,19.2,11.2-5.4,21.7-14.9,30.4-22.6,1-.9,3-2.3,2.4-3.7-5.2-2.9-18.6-1.7-19.4-7.5s6.4-4.7,10.4-4.4c12.2.9,27.6-2.5,34.7-7.1,2-8.2,12.9-9,14-.1,9.9-.5,19.4-3.1,29-3.5,2.7-.1,5.5,1.1,8.3,1.1C408.1,18.1,418.1,15.8,422.2,22.3ZM271.3,66.7c4.3,1.1,4.6-4.4,3-6.5C271.8,60.6,270,63.9,271.3,66.7ZM244,22.2h-.9a216,216,0,0,0-26.4,7.7c-10.8,13.7-24.5,24.4-31.8,41.7,8-2.7,15.5-3.5,22.1-6.5l1-.4c7.4-4.6,14.2-13.9,20.5-21.4A211.7,211.7,0,0,0,244,22.2Z" transform="translate(0 0)"/><path class="cls-1" d="M146.5,59.5a7.7,7.7,0,0,1,1.3,5.1c-3,3.1-8.2,3.9-13.2,4.8-1,15.3-14.7,1.7-22.9.9,2.8-4.7,9.5-5,12.4-9.5-4.3-2.3-7.9-5.3-12-7.8-5.6,3-9.7,9.5-15.7,12.7s-12.2,3-19.2,3.7a17.1,17.1,0,0,1-5.9-7.6c-4.8,4.4-11.8,6.5-17.9,9.4-2.8,5.3-7.4,12.8-7,20.4.2,4.2,3.3,7.4,2.5,11.3-4.7.8-12.2-.2-16.3,0-9,.4-24.9-3.7-25-9s13.6-12.2,17.1-14C35.6,74.4,48,74.3,49.4,62.3c-4.8,3.1-12.2,2.3-14.9-2.3-6.4,4.9-18.6,7.8-26.8,7.8C4,65.9,3.5,60.9,0,58.7c0-1.4.1-2.8.1-4.2s2.6-2.7,4.3-3.6C6.2,42.2,14.8,32.5,21,41.5c1.3,10.2-5,12.4-7.9,18,8.1.2,12.8-1.3,17.8-5.1s9.8-12.6,14.6-5.3a49.1,49.1,0,0,0-2.1,7.5C54.3,50,59.9,38.1,66.5,27.2c1.3.9,4.2.3,5.1,1.5C67,41.9,58.4,50.9,54.9,65.2c5.6-1.5,9.6-4.6,14.2-7.1.5-3.2,2.8-4.4,4.8-6-.2-7.5,13.6-19.3,16.5-8.4,2.3,8.5-5.3,11.8-7.9,17.5,13,.8,18.8-6.1,24.1-13.4-.8-1.7-.8-4.1-1.2-6.1,3.5-6.9,18-3.1,16.2,6,5.8,3.1,11,6.8,14.1,12.5C140,60.6,143.1,59.9,146.5,59.5ZM79.9,54.6c3.9.8,4-4.9,2.5-6.9C80.2,48.5,77.7,52.2,79.9,54.6ZM41.5,98c-2.6-7.8,3.7-16,2-22.3-10.8,5.1-22.9,8.8-29,18.9C22.9,98.7,34.3,97.5,41.5,98ZM11.8,52.5c1.2-1.3,2-6.4-.8-6.5-.8,1.9-3.7,3.8-2,6.9C10.4,53.3,10.7,52.5,11.8,52.5Z" transform="translate(0 0)"/><path class="cls-1" d="M11.8,52.5c-1.1,0-1.4.8-2.8.4" transform="translate(0 0)"/></g></svg>